<svg xmlns="http://www.w3.org/2000/svg" xmlns:xlink="http://www.w3.org/1999/xlink" viewBox="0 0 430 430" width="430" height="430" preserveAspectRatio="xMidYMid meet" style="width: 100%; height: 100%; transform: translate3d(0px, 0px, 0px); content-visibility: visible;"><defs><clipPath id="__lottie_element_16"><rect width="430" height="430" x="0" y="0"/></clipPath><clipPath id="__lottie_element_18"><path d="M0,0 L430,0 L430,430 L0,430z"/></clipPath><clipPath id="__lottie_element_23"><path d="M0,0 L430,0 L430,430 L0,430z"/></clipPath><clipPath id="__lottie_element_27"><path d="M0,0 L430,0 L430,430 L0,430z"/></clipPath><g id="__lottie_element_30"><g clip-path="url(#__lottie_element_31)" transform="matrix(1,0,0,1,0,0)" opacity="1" style="display: block;"><g transform="matrix(0.7071067690849304,-0.7071067690849304,0.7071067690849304,0.7071067690849304,211.443603515625,204.69808959960938)" opacity="1" style="display: none;"><g opacity="1" transform="matrix(1,0,0,1,0,0)"><path class="secondary" fill="rgb(47,232,188)" fill-opacity="1" d=" M-59.122528076171875,21.781600952148438 C-59.122528076171875,21.781600952148438 112.9165267944336,20.99121856689453 112.9165267944336,20.99121856689453 C112.9165267944336,20.99121856689453 112.9165267944336,23.823108673095703 112.9165267944336,23.823108673095703 C112.9165267944336,23.823108673095703 144.33343505859375,23.823108673095703 144.33343505859375,23.823108673095703 C144.33343505859375,23.823108673095703 144.33343505859375,22.06338119506836 144.33343505859375,22.06338119506836 C144.33343505859375,22.06338119506836 175.75042724609375,22.06338119506836 175.75042724609375,22.06338119506836 C175.75042724609375,22.06338119506836 175.75042724609375,23.823108673095703 175.75042724609375,23.823108673095703 C175.75042724609375,23.823108673095703 207.16653442382812,23.823108673095703 207.16653442382812,23.823108673095703 C207.16653442382812,23.823108673095703 207.16653442382812,20.99121856689453 207.16653442382812,20.99121856689453 C207.16653442382812,20.99121856689453 220.1365203857422,20.984201431274414 220.1365203857422,20.984201431274414 C226.2715301513672,20.984201431274414 231.13070678710938,16.913761138916016 231.13070678710938,10.778761863708496 C231.13070678710938,10.778761863708496 231.2444305419922,5.69163703918457 231.2444305419922,5.69163703918457 C231.2444305419922,-0.44336292147636414 226.2706298828125,-5.416362762451172 220.1365203857422,-5.416362762451172 C220.1365203857422,-5.416362762451172 -59.122528076171875,-4.618062496185303 -59.122528076171875,-4.618062496185303"/></g></g><g transform="matrix(0.7071067690849304,-0.7071067690849304,0.7071067690849304,0.7071067690849304,211.443603515625,204.69808959960938)" opacity="1" style="display: none;"><g opacity="1" transform="matrix(1,0,0,1,0,0)"><path class="secondary" fill="rgb(47,232,188)" fill-opacity="1" d=" M-35.37099838256836,25.871999740600586 C-35.37099838256836,25.871999740600586 112.8010025024414,25.569000244140625 112.8010025024414,25.569000244140625 C112.8010025024414,25.569000244140625 112.8010025024414,54.604000091552734 112.8010025024414,54.604000091552734 C112.8010025024414,54.604000091552734 144.2169952392578,54.604000091552734 144.2169952392578,54.604000091552734 C144.2169952392578,54.604000091552734 144.2169952392578,36.5629997253418 144.2169952392578,36.5629997253418 C144.2169952392578,36.5629997253418 175.63400268554688,36.5629997253418 175.63400268554688,36.5629997253418 C175.63400268554688,36.5629997253418 175.63400268554688,54.604000091552734 175.63400268554688,54.604000091552734 C175.63400268554688,54.604000091552734 207.05099487304688,54.604000091552734 207.05099487304688,54.604000091552734 C207.05099487304688,54.604000091552734 207.05099487304688,25.569000244140625 207.05099487304688,25.569000244140625 C207.05099487304688,25.569000244140625 220.02099609375,25.496999740600586 220.02099609375,25.496999740600586 C226.156005859375,25.496999740600586 231.1280059814453,20.52400016784668 231.1280059814453,14.388999938964844 C231.1280059814453,14.388999938964844 231.1280059814453,-0.17499999701976776 231.1280059814453,-0.17499999701976776 C231.1280059814453,-6.309999942779541 226.156005859375,-11.282999992370605 220.02099609375,-11.282999992370605 C220.02099609375,-11.282999992370605 -35.37099838256836,-10.907999992370605 -35.37099838256836,-10.907999992370605"/></g></g><g transform="matrix(0.7071067690849304,-0.7071067690849304,-0.7071067690849304,-0.7071067690849304,221.54391479492188,216.44540405273438)" opacity="1" style="display: block;"><g opacity="1" transform="matrix(1,0,0,1,0,0)"><path class="secondary" fill="rgb(47,232,188)" fill-opacity="1" d=" M-38.2392578125,25.370769500732422 C-38.2392578125,25.370769500732422 112.81515502929688,25.008045196533203 112.81515502929688,25.008045196533203 C112.81515502929688,25.008045196533203 112.81515502929688,50.832157135009766 112.81515502929688,50.832157135009766 C112.81515502929688,50.832157135009766 144.23126220703125,50.832157135009766 144.23126220703125,50.832157135009766 C144.23126220703125,50.832157135009766 144.23126220703125,34.78623962402344 144.23126220703125,34.78623962402344 C144.23126220703125,34.78623962402344 175.6482696533203,34.78623962402344 175.6482696533203,34.78623962402344 C175.6482696533203,34.78623962402344 175.6482696533203,50.832157135009766 175.6482696533203,50.832157135009766 C175.6482696533203,50.832157135009766 207.06515502929688,50.832157135009766 207.06515502929688,50.832157135009766 C207.06515502929688,50.832157135009766 207.06515502929688,25.008045196533203 207.06515502929688,25.008045196533203 C207.06515502929688,25.008045196533203 220.03515625,24.944007873535156 220.03515625,24.944007873535156 C226.17015075683594,24.944007873535156 231.12832641601562,20.081605911254883 231.12832641601562,13.946606636047363 C231.12832641601562,13.946606636047363 231.14227294921875,0.5438888669013977 231.14227294921875,0.5438888669013977 C231.14227294921875,-5.591111183166504 226.1700439453125,-10.56411075592041 220.03515625,-10.56411075592041 C220.03515625,-10.56411075592041 -38.2392578125,-10.137240409851074 -38.2392578125,-10.137240409851074"/></g></g></g></g><clipPath id="__lottie_element_31"><path d="M0,0 L430,0 L430,430 L0,430z"/></clipPath><clipPath id="__lottie_element_41"><path d="M0,0 L430,0 L430,430 L0,430z"/></clipPath><clipPath id="__lottie_element_45"><path d="M0,0 L430,0 L430,430 L0,430z"/></clipPath><g id="__lottie_element_48"><g clip-path="url(#__lottie_element_49)" transform="matrix(1,0,0,1,0,0)" opacity="1" style="display: block;"><g transform="matrix(0.7071067690849304,-0.7071067690849304,0.7071067690849304,0.7071067690849304,211.443603515625,204.69808959960938)" opacity="1" style="display: none;"><g opacity="1" transform="matrix(1,0,0,1,0,0)"><path class="secondary" fill="rgb(47,232,188)" fill-opacity="1" d=" M-68.97673034667969,-3.688812017440796 C-68.97673034667969,0.49838879704475403 -102.98582458496094,3.891763687133789 -144.93882751464844,3.891763687133789 C-186.89183044433594,3.891763687133789 -220.9017333984375,0.49838879704475403 -220.9017333984375,-3.688812017440796 C-220.9017333984375,-7.876012802124023 -186.89183044433594,-11.270193099975586 -144.93882751464844,-11.270193099975586 C-102.98582458496094,-11.270193099975586 -68.97673034667969,-7.876012802124023 -68.97673034667969,-3.688812017440796z M-99.6958236694336,-3.6887145042419434 C-99.6958236694336,-6.182125568389893 -119.95182800292969,-8.20471477508545 -144.93882751464844,-8.20471477508545 C-169.9258270263672,-8.20471477508545 -190.18182373046875,-6.182222843170166 -190.18182373046875,-3.688812017440796 C-190.18182373046875,-1.1954010725021362 -169.9258270263672,0.8262857794761658 -144.93882751464844,0.8262857794761658 C-119.95182800292969,0.8262857794761658 -99.6958236694336,-1.1953036785125732 -99.6958236694336,-3.6887145042419434z"/></g></g><g transform="matrix(0.7071067690849304,-0.7071067690849304,0.7071067690849304,0.7071067690849304,211.443603515625,204.69808959960938)" opacity="1" style="display: none;"><g opacity="1" transform="matrix(1,0,0,1,0,0)"><path class="secondary" fill="rgb(47,232,188)" fill-opacity="1" d=" M-69.00199890136719,7.142000198364258 C-69.00199890136719,-34.59199905395508 -103.01200103759766,-68.42500305175781 -144.96499633789062,-68.42500305175781 C-186.91799926757812,-68.42500305175781 -220.927001953125,-34.59199905395508 -220.927001953125,7.142000198364258 C-220.927001953125,48.875999450683594 -186.91799926757812,82.70800018310547 -144.96499633789062,82.70800018310547 C-103.01200103759766,82.70800018310547 -69.00199890136719,48.875999450683594 -69.00199890136719,7.142000198364258z M-99.72200012207031,7.142000198364258 C-99.72200012207031,31.999000549316406 -119.97799682617188,52.14799880981445 -144.96499633789062,52.14799880981445 C-169.95199584960938,52.14799880981445 -190.20799255371094,31.999000549316406 -190.20799255371094,7.142000198364258 C-190.20799255371094,-17.71500015258789 -169.95199584960938,-37.8650016784668 -144.96499633789062,-37.8650016784668 C-119.97799682617188,-37.8650016784668 -99.72200012207031,-17.71500015258789 -99.72200012207031,7.142000198364258z"/></g></g><g transform="matrix(0.7071067690849304,-0.7071067690849304,-0.7071067690849304,-0.7071067690849304,221.54391479492188,216.44540405273438)" opacity="1" style="display: block;"><g opacity="1" transform="matrix(1,0,0,1,0,0)"><path class="secondary" fill="rgb(47,232,188)" fill-opacity="1" d=" M-68.98773193359375,8.579777717590332 C-68.98773193359375,-28.526348114013672 -102.99761962890625,-58.60774230957031 -144.95062255859375,-58.60774230957031 C-186.90362548828125,-58.60774230957031 -220.91273498535156,-28.526348114013672 -220.91273498535156,8.579777717590332 C-220.91273498535156,45.6859016418457 -186.90362548828125,75.76629638671875 -144.95062255859375,75.76629638671875 C-102.99761962890625,75.76629638671875 -68.98773193359375,45.6859016418457 -68.98773193359375,8.579777717590332z M-99.7076187133789,8.579777717590332 C-99.7076187133789,30.68044662475586 -119.963623046875,48.59503173828125 -144.95062255859375,48.59503173828125 C-169.9376220703125,48.59503173828125 -190.1937255859375,30.68044662475586 -190.1937255859375,8.579777717590332 C-190.1937255859375,-13.520892143249512 -169.9376220703125,-31.436473846435547 -144.95062255859375,-31.436473846435547 C-119.963623046875,-31.436473846435547 -99.7076187133789,-13.520892143249512 -99.7076187133789,8.579777717590332z"/></g></g></g></g><clipPath id="__lottie_element_49"><path d="M0,0 L430,0 L430,430 L0,430z"/></clipPath><clipPath id="__lottie_element_53"><path d="M0,0 L430,0 L430,430 L0,430z"/></clipPath><mask id="__lottie_element_48_1" mask-type="alpha"><use xmlns:ns1="http://www.w3.org/1999/xlink" ns1:href="#__lottie_element_48"/></mask><mask id="__lottie_element_30_1" mask-type="alpha"><use xmlns:ns2="http://www.w3.org/1999/xlink" ns2:href="#__lottie_element_30"/></mask></defs><g clip-path="url(#__lottie_element_16)"><g clip-path="url(#__lottie_element_18)" transform="matrix(1,0,0,1,0,0)" opacity="1" style="display: block;"><g clip-path="url(#__lottie_element_23)" transform="matrix(1,0,0,1,0,0)" opacity="1" style="display: block;"><g transform="matrix(0.7071067690849304,-0.7071067690849304,0.7071067690849304,0.7071067690849304,211.443603515625,204.69808959960938)" opacity="1" style="display: none;"><g opacity="1" transform="matrix(1,0,0,1,0,0)"><path class="secondary" fill="rgb(47,232,188)" fill-opacity="1" d=" M-59.122528076171875,21.781600952148438 C-59.122528076171875,21.781600952148438 112.9165267944336,20.99121856689453 112.9165267944336,20.99121856689453 C112.9165267944336,20.99121856689453 112.9165267944336,23.823108673095703 112.9165267944336,23.823108673095703 C112.9165267944336,23.823108673095703 144.33343505859375,23.823108673095703 144.33343505859375,23.823108673095703 C144.33343505859375,23.823108673095703 144.33343505859375,22.06338119506836 144.33343505859375,22.06338119506836 C144.33343505859375,22.06338119506836 175.75042724609375,22.06338119506836 175.75042724609375,22.06338119506836 C175.75042724609375,22.06338119506836 175.75042724609375,23.823108673095703 175.75042724609375,23.823108673095703 C175.75042724609375,23.823108673095703 207.16653442382812,23.823108673095703 207.16653442382812,23.823108673095703 C207.16653442382812,23.823108673095703 207.16653442382812,20.99121856689453 207.16653442382812,20.99121856689453 C207.16653442382812,20.99121856689453 220.1365203857422,20.984201431274414 220.1365203857422,20.984201431274414 C226.2715301513672,20.984201431274414 231.13070678710938,16.913761138916016 231.13070678710938,10.778761863708496 C231.13070678710938,10.778761863708496 231.2444305419922,5.69163703918457 231.2444305419922,5.69163703918457 C231.2444305419922,-0.44336292147636414 226.2706298828125,-5.416362762451172 220.1365203857422,-5.416362762451172 C220.1365203857422,-5.416362762451172 -59.122528076171875,-4.618062496185303 -59.122528076171875,-4.618062496185303"/></g></g><g transform="matrix(0.7071067690849304,-0.7071067690849304,0.7071067690849304,0.7071067690849304,211.443603515625,204.69808959960938)" opacity="0.5" style="mix-blend-mode: multiply; display: none;"><g opacity="1" transform="matrix(1,0,0,1,0,0)"><path class="secondary" fill="rgb(47,232,188)" fill-opacity="1" d=" M-59.122528076171875,21.781600952148438 C-59.122528076171875,21.781600952148438 112.9165267944336,20.99121856689453 112.9165267944336,20.99121856689453 C112.9165267944336,20.99121856689453 112.9165267944336,23.823108673095703 112.9165267944336,23.823108673095703 C112.9165267944336,23.823108673095703 144.33343505859375,23.823108673095703 144.33343505859375,23.823108673095703 C144.33343505859375,23.823108673095703 144.33343505859375,22.06338119506836 144.33343505859375,22.06338119506836 C144.33343505859375,22.06338119506836 175.75042724609375,22.06338119506836 175.75042724609375,22.06338119506836 C175.75042724609375,22.06338119506836 175.75042724609375,23.823108673095703 175.75042724609375,23.823108673095703 C175.75042724609375,23.823108673095703 207.16653442382812,23.823108673095703 207.16653442382812,23.823108673095703 C207.16653442382812,23.823108673095703 207.16653442382812,20.99121856689453 207.16653442382812,20.99121856689453 C207.16653442382812,20.99121856689453 220.1365203857422,20.984201431274414 220.1365203857422,20.984201431274414 C226.2715301513672,20.984201431274414 231.13070678710938,16.913761138916016 231.13070678710938,10.778761863708496 C231.13070678710938,10.778761863708496 231.2444305419922,5.69163703918457 231.2444305419922,5.69163703918457 C231.2444305419922,-0.44336292147636414 226.2706298828125,-5.416362762451172 220.1365203857422,-5.416362762451172 C220.1365203857422,-5.416362762451172 -59.122528076171875,-4.618062496185303 -59.122528076171875,-4.618062496185303"/></g></g><g transform="matrix(0.7071067690849304,-0.7071067690849304,0.7071067690849304,0.7071067690849304,211.443603515625,204.69808959960938)" opacity="1" style="display: none;"><g opacity="1" transform="matrix(1,0,0,1,0,0)"><path class="secondary" fill="rgb(47,232,188)" fill-opacity="1" d=" M-35.37099838256836,25.871999740600586 C-35.37099838256836,25.871999740600586 112.8010025024414,25.569000244140625 112.8010025024414,25.569000244140625 C112.8010025024414,25.569000244140625 112.8010025024414,54.604000091552734 112.8010025024414,54.604000091552734 C112.8010025024414,54.604000091552734 144.2169952392578,54.604000091552734 144.2169952392578,54.604000091552734 C144.2169952392578,54.604000091552734 144.2169952392578,36.5629997253418 144.2169952392578,36.5629997253418 C144.2169952392578,36.5629997253418 175.63400268554688,36.5629997253418 175.63400268554688,36.5629997253418 C175.63400268554688,36.5629997253418 175.63400268554688,54.604000091552734 175.63400268554688,54.604000091552734 C175.63400268554688,54.604000091552734 207.05099487304688,54.604000091552734 207.05099487304688,54.604000091552734 C207.05099487304688,54.604000091552734 207.05099487304688,25.569000244140625 207.05099487304688,25.569000244140625 C207.05099487304688,25.569000244140625 220.02099609375,25.496999740600586 220.02099609375,25.496999740600586 C226.156005859375,25.496999740600586 231.1280059814453,20.52400016784668 231.1280059814453,14.388999938964844 C231.1280059814453,14.388999938964844 231.1280059814453,-0.17499999701976776 231.1280059814453,-0.17499999701976776 C231.1280059814453,-6.309999942779541 226.156005859375,-11.282999992370605 220.02099609375,-11.282999992370605 C220.02099609375,-11.282999992370605 -35.37099838256836,-10.907999992370605 -35.37099838256836,-10.907999992370605"/></g></g><g transform="matrix(0.7071067690849304,-0.7071067690849304,0.7071067690849304,0.7071067690849304,211.443603515625,204.69808959960938)" opacity="0.5" style="mix-blend-mode: multiply; display: none;"><g opacity="1" transform="matrix(1,0,0,1,0,0)"><path class="secondary" fill="rgb(47,232,188)" fill-opacity="1" d=" M-35.37099838256836,25.871999740600586 C-35.37099838256836,25.871999740600586 112.8010025024414,25.569000244140625 112.8010025024414,25.569000244140625 C112.8010025024414,25.569000244140625 112.8010025024414,54.604000091552734 112.8010025024414,54.604000091552734 C112.8010025024414,54.604000091552734 144.2169952392578,54.604000091552734 144.2169952392578,54.604000091552734 C144.2169952392578,54.604000091552734 144.2169952392578,36.5629997253418 144.2169952392578,36.5629997253418 C144.2169952392578,36.5629997253418 175.63400268554688,36.5629997253418 175.63400268554688,36.5629997253418 C175.63400268554688,36.5629997253418 175.63400268554688,54.604000091552734 175.63400268554688,54.604000091552734 C175.63400268554688,54.604000091552734 207.05099487304688,54.604000091552734 207.05099487304688,54.604000091552734 C207.05099487304688,54.604000091552734 207.05099487304688,25.569000244140625 207.05099487304688,25.569000244140625 C207.05099487304688,25.569000244140625 220.02099609375,25.496999740600586 220.02099609375,25.496999740600586 C226.156005859375,25.496999740600586 231.1280059814453,20.52400016784668 231.1280059814453,14.388999938964844 C231.1280059814453,14.388999938964844 231.1280059814453,-0.17499999701976776 231.1280059814453,-0.17499999701976776 C231.1280059814453,-6.309999942779541 226.156005859375,-11.282999992370605 220.02099609375,-11.282999992370605 C220.02099609375,-11.282999992370605 -35.37099838256836,-10.907999992370605 -35.37099838256836,-10.907999992370605"/></g></g><g transform="matrix(0.7071067690849304,-0.7071067690849304,-0.7071067690849304,-0.7071067690849304,221.54391479492188,216.44540405273438)" opacity="1" style="display: block;"><g opacity="1" transform="matrix(1,0,0,1,0,0)"><path class="secondary" fill="rgb(47,232,188)" fill-opacity="1" d=" M-38.2392578125,25.370769500732422 C-38.2392578125,25.370769500732422 112.81515502929688,25.008045196533203 112.81515502929688,25.008045196533203 C112.81515502929688,25.008045196533203 112.81515502929688,50.832157135009766 112.81515502929688,50.832157135009766 C112.81515502929688,50.832157135009766 144.23126220703125,50.832157135009766 144.23126220703125,50.832157135009766 C144.23126220703125,50.832157135009766 144.23126220703125,34.78623962402344 144.23126220703125,34.78623962402344 C144.23126220703125,34.78623962402344 175.6482696533203,34.78623962402344 175.6482696533203,34.78623962402344 C175.6482696533203,34.78623962402344 175.6482696533203,50.832157135009766 175.6482696533203,50.832157135009766 C175.6482696533203,50.832157135009766 207.06515502929688,50.832157135009766 207.06515502929688,50.832157135009766 C207.06515502929688,50.832157135009766 207.06515502929688,25.008045196533203 207.06515502929688,25.008045196533203 C207.06515502929688,25.008045196533203 220.03515625,24.944007873535156 220.03515625,24.944007873535156 C226.17015075683594,24.944007873535156 231.12832641601562,20.081605911254883 231.12832641601562,13.946606636047363 C231.12832641601562,13.946606636047363 231.14227294921875,0.5438888669013977 231.14227294921875,0.5438888669013977 C231.14227294921875,-5.591111183166504 226.1700439453125,-10.56411075592041 220.03515625,-10.56411075592041 C220.03515625,-10.56411075592041 -38.2392578125,-10.137240409851074 -38.2392578125,-10.137240409851074"/></g></g><g transform="matrix(0.7071067690849304,-0.7071067690849304,-0.7071067690849304,-0.7071067690849304,221.54391479492188,216.44540405273438)" opacity="0.5" style="mix-blend-mode: multiply; display: block;"><g opacity="1" transform="matrix(1,0,0,1,0,0)"><path class="secondary" fill="rgb(47,232,188)" fill-opacity="1" d=" M-38.2392578125,25.370769500732422 C-38.2392578125,25.370769500732422 112.81515502929688,25.008045196533203 112.81515502929688,25.008045196533203 C112.81515502929688,25.008045196533203 112.81515502929688,50.832157135009766 112.81515502929688,50.832157135009766 C112.81515502929688,50.832157135009766 144.23126220703125,50.832157135009766 144.23126220703125,50.832157135009766 C144.23126220703125,50.832157135009766 144.23126220703125,34.78623962402344 144.23126220703125,34.78623962402344 C144.23126220703125,34.78623962402344 175.6482696533203,34.78623962402344 175.6482696533203,34.78623962402344 C175.6482696533203,34.78623962402344 175.6482696533203,50.832157135009766 175.6482696533203,50.832157135009766 C175.6482696533203,50.832157135009766 207.06515502929688,50.832157135009766 207.06515502929688,50.832157135009766 C207.06515502929688,50.832157135009766 207.06515502929688,25.008045196533203 207.06515502929688,25.008045196533203 C207.06515502929688,25.008045196533203 220.03515625,24.944007873535156 220.03515625,24.944007873535156 C226.17015075683594,24.944007873535156 231.12832641601562,20.081605911254883 231.12832641601562,13.946606636047363 C231.12832641601562,13.946606636047363 231.14227294921875,0.5438888669013977 231.14227294921875,0.5438888669013977 C231.14227294921875,-5.591111183166504 226.1700439453125,-10.56411075592041 220.03515625,-10.56411075592041 C220.03515625,-10.56411075592041 -38.2392578125,-10.137240409851074 -38.2392578125,-10.137240409851074"/></g></g></g><g mask="url(#__lottie_element_30_1)" style="display: block;"><g clip-path="url(#__lottie_element_27)" transform="matrix(1,0,0,1,7,7)" opacity="1"><g transform="matrix(0.7071067690849304,-0.7071067690849304,0.7071067690849304,0.7071067690849304,211.443603515625,204.69808959960938)" opacity="1" style="display: none;"><g opacity="1" transform="matrix(1,0,0,1,0,0)"><path class="secondary" fill="rgb(47,232,188)" fill-opacity="1" d=" M-59.122528076171875,21.781600952148438 C-59.122528076171875,21.781600952148438 112.9165267944336,20.99121856689453 112.9165267944336,20.99121856689453 C112.9165267944336,20.99121856689453 112.9165267944336,23.823108673095703 112.9165267944336,23.823108673095703 C112.9165267944336,23.823108673095703 144.33343505859375,23.823108673095703 144.33343505859375,23.823108673095703 C144.33343505859375,23.823108673095703 144.33343505859375,22.06338119506836 144.33343505859375,22.06338119506836 C144.33343505859375,22.06338119506836 175.75042724609375,22.06338119506836 175.75042724609375,22.06338119506836 C175.75042724609375,22.06338119506836 175.75042724609375,23.823108673095703 175.75042724609375,23.823108673095703 C175.75042724609375,23.823108673095703 207.16653442382812,23.823108673095703 207.16653442382812,23.823108673095703 C207.16653442382812,23.823108673095703 207.16653442382812,20.99121856689453 207.16653442382812,20.99121856689453 C207.16653442382812,20.99121856689453 220.1365203857422,20.984201431274414 220.1365203857422,20.984201431274414 C226.2715301513672,20.984201431274414 231.13070678710938,16.913761138916016 231.13070678710938,10.778761863708496 C231.13070678710938,10.778761863708496 231.2444305419922,5.69163703918457 231.2444305419922,5.69163703918457 C231.2444305419922,-0.44336292147636414 226.2706298828125,-5.416362762451172 220.1365203857422,-5.416362762451172 C220.1365203857422,-5.416362762451172 -59.122528076171875,-4.618062496185303 -59.122528076171875,-4.618062496185303"/></g></g><g transform="matrix(0.7071067690849304,-0.7071067690849304,0.7071067690849304,0.7071067690849304,211.443603515625,204.69808959960938)" opacity="1" style="display: none;"><g opacity="1" transform="matrix(1,0,0,1,0,0)"><path class="secondary" fill="rgb(47,232,188)" fill-opacity="1" d=" M-35.37099838256836,25.871999740600586 C-35.37099838256836,25.871999740600586 112.8010025024414,25.569000244140625 112.8010025024414,25.569000244140625 C112.8010025024414,25.569000244140625 112.8010025024414,54.604000091552734 112.8010025024414,54.604000091552734 C112.8010025024414,54.604000091552734 144.2169952392578,54.604000091552734 144.2169952392578,54.604000091552734 C144.2169952392578,54.604000091552734 144.2169952392578,36.5629997253418 144.2169952392578,36.5629997253418 C144.2169952392578,36.5629997253418 175.63400268554688,36.5629997253418 175.63400268554688,36.5629997253418 C175.63400268554688,36.5629997253418 175.63400268554688,54.604000091552734 175.63400268554688,54.604000091552734 C175.63400268554688,54.604000091552734 207.05099487304688,54.604000091552734 207.05099487304688,54.604000091552734 C207.05099487304688,54.604000091552734 207.05099487304688,25.569000244140625 207.05099487304688,25.569000244140625 C207.05099487304688,25.569000244140625 220.02099609375,25.496999740600586 220.02099609375,25.496999740600586 C226.156005859375,25.496999740600586 231.1280059814453,20.52400016784668 231.1280059814453,14.388999938964844 C231.1280059814453,14.388999938964844 231.1280059814453,-0.17499999701976776 231.1280059814453,-0.17499999701976776 C231.1280059814453,-6.309999942779541 226.156005859375,-11.282999992370605 220.02099609375,-11.282999992370605 C220.02099609375,-11.282999992370605 -35.37099838256836,-10.907999992370605 -35.37099838256836,-10.907999992370605"/></g></g><g transform="matrix(0.7071067690849304,-0.7071067690849304,-0.7071067690849304,-0.7071067690849304,221.54391479492188,216.44540405273438)" opacity="1" style="display: block;"><g opacity="1" transform="matrix(1,0,0,1,0,0)"><path class="secondary" fill="rgb(47,232,188)" fill-opacity="1" d=" M-38.2392578125,25.370769500732422 C-38.2392578125,25.370769500732422 112.81515502929688,25.008045196533203 112.81515502929688,25.008045196533203 C112.81515502929688,25.008045196533203 112.81515502929688,50.832157135009766 112.81515502929688,50.832157135009766 C112.81515502929688,50.832157135009766 144.23126220703125,50.832157135009766 144.23126220703125,50.832157135009766 C144.23126220703125,50.832157135009766 144.23126220703125,34.78623962402344 144.23126220703125,34.78623962402344 C144.23126220703125,34.78623962402344 175.6482696533203,34.78623962402344 175.6482696533203,34.78623962402344 C175.6482696533203,34.78623962402344 175.6482696533203,50.832157135009766 175.6482696533203,50.832157135009766 C175.6482696533203,50.832157135009766 207.06515502929688,50.832157135009766 207.06515502929688,50.832157135009766 C207.06515502929688,50.832157135009766 207.06515502929688,25.008045196533203 207.06515502929688,25.008045196533203 C207.06515502929688,25.008045196533203 220.03515625,24.944007873535156 220.03515625,24.944007873535156 C226.17015075683594,24.944007873535156 231.12832641601562,20.081605911254883 231.12832641601562,13.946606636047363 C231.12832641601562,13.946606636047363 231.14227294921875,0.5438888669013977 231.14227294921875,0.5438888669013977 C231.14227294921875,-5.591111183166504 226.1700439453125,-10.56411075592041 220.03515625,-10.56411075592041 C220.03515625,-10.56411075592041 -38.2392578125,-10.137240409851074 -38.2392578125,-10.137240409851074"/></g></g></g></g><g transform="matrix(0.7071067690849304,-0.7071067690849304,0.7071067690849304,0.7071067690849304,211.443603515625,204.69808959960938)" opacity="1" style="display: none;"><g opacity="1" transform="matrix(1,0,0,1,0,0)"><path stroke-linecap="butt" stroke-linejoin="miter" fill-opacity="0" stroke-miterlimit="4" class="secondary" stroke="rgb(47,232,188)" stroke-opacity="1" stroke-width="2" d="M0 0"/></g><path class="secondary" fill="rgb(47,232,188)" fill-opacity="1" d=" M-68.88556671142578,18.87517738342285 C-68.88556671142578,23.0623779296875 -102.89466857910156,26.455753326416016 -144.84767150878906,26.455753326416016 C-186.80067443847656,26.455753326416016 -220.81057739257812,23.0623779296875 -220.81057739257812,18.87517738342285 C-220.81057739257812,14.687975883483887 -186.80067443847656,11.293795585632324 -144.84767150878906,11.293795585632324 C-102.89466857910156,11.293795585632324 -68.88556671142578,14.687975883483887 -68.88556671142578,18.87517738342285z M-99.60466766357422,18.875274658203125 C-99.60466766357422,16.38186264038086 -119.86066436767578,14.359273910522461 -144.84767150878906,14.359273910522461 C-169.8346710205078,14.359273910522461 -190.09156799316406,16.381765365600586 -190.09156799316406,18.87517738342285 C-190.09156799316406,21.368587493896484 -169.8346710205078,23.390274047851562 -144.84767150878906,23.390274047851562 C-119.86066436767578,23.390274047851562 -99.60466766357422,21.368684768676758 -99.60466766357422,18.875274658203125z"/><path class="secondary" fill="rgb(47,232,188)" fill-opacity="0.5" d=" M-68.88556671142578,18.87517738342285 C-68.88556671142578,23.0623779296875 -102.89466857910156,26.455753326416016 -144.84767150878906,26.455753326416016 C-186.80067443847656,26.455753326416016 -220.81057739257812,23.0623779296875 -220.81057739257812,18.87517738342285 C-220.81057739257812,14.687975883483887 -186.80067443847656,11.293795585632324 -144.84767150878906,11.293795585632324 C-102.89466857910156,11.293795585632324 -68.88556671142578,14.687975883483887 -68.88556671142578,18.87517738342285z M-99.60466766357422,18.875274658203125 C-99.60466766357422,16.38186264038086 -119.86066436767578,14.359273910522461 -144.84767150878906,14.359273910522461 C-169.8346710205078,14.359273910522461 -190.09156799316406,16.381765365600586 -190.09156799316406,18.87517738342285 C-190.09156799316406,21.368587493896484 -169.8346710205078,23.390274047851562 -144.84767150878906,23.390274047851562 C-119.86066436767578,23.390274047851562 -99.60466766357422,21.368684768676758 -99.60466766357422,18.875274658203125z" style="mix-blend-mode: multiply;"/><g opacity="1" transform="matrix(1,0,0,1,0,0)"/></g><g transform="matrix(0.7071067690849304,-0.7071067690849304,0.7071067690849304,0.7071067690849304,211.443603515625,204.69808959960938)" opacity="1" style="display: none;"><g opacity="1" transform="matrix(1,0,0,1,0,0)"><path stroke-linecap="butt" stroke-linejoin="miter" fill-opacity="0" stroke-miterlimit="4" class="secondary" stroke="rgb(47,232,188)" stroke-opacity="1" stroke-width="2" d="M0 0"/></g><g opacity="1" transform="matrix(1,0,0,1,0,0)"><path class="secondary" fill="rgb(47,232,188)" fill-opacity="1" d=" M-69.00199890136719,7.142000198364258 C-69.00199890136719,-34.59199905395508 -103.01200103759766,-68.42500305175781 -144.96499633789062,-68.42500305175781 C-186.91799926757812,-68.42500305175781 -220.927001953125,-34.59199905395508 -220.927001953125,7.142000198364258 C-220.927001953125,48.875999450683594 -186.91799926757812,82.70800018310547 -144.96499633789062,82.70800018310547 C-103.01200103759766,82.70800018310547 -69.00199890136719,48.875999450683594 -69.00199890136719,7.142000198364258z M-99.72200012207031,7.142000198364258 C-99.72200012207031,31.999000549316406 -119.97799682617188,52.14799880981445 -144.96499633789062,52.14799880981445 C-169.95199584960938,52.14799880981445 -190.20799255371094,31.999000549316406 -190.20799255371094,7.142000198364258 C-190.20799255371094,-17.71500015258789 -169.95199584960938,-37.8650016784668 -144.96499633789062,-37.8650016784668 C-119.97799682617188,-37.8650016784668 -99.72200012207031,-17.71500015258789 -99.72200012207031,7.142000198364258z"/><path class="secondary" fill="rgb(47,232,188)" fill-opacity="0.5" d=" M-69.00199890136719,7.142000198364258 C-69.00199890136719,-34.59199905395508 -103.01200103759766,-68.42500305175781 -144.96499633789062,-68.42500305175781 C-186.91799926757812,-68.42500305175781 -220.927001953125,-34.59199905395508 -220.927001953125,7.142000198364258 C-220.927001953125,48.875999450683594 -186.91799926757812,82.70800018310547 -144.96499633789062,82.70800018310547 C-103.01200103759766,82.70800018310547 -69.00199890136719,48.875999450683594 -69.00199890136719,7.142000198364258z M-99.72200012207031,7.142000198364258 C-99.72200012207031,31.999000549316406 -119.97799682617188,52.14799880981445 -144.96499633789062,52.14799880981445 C-169.95199584960938,52.14799880981445 -190.20799255371094,31.999000549316406 -190.20799255371094,7.142000198364258 C-190.20799255371094,-17.71500015258789 -169.95199584960938,-37.8650016784668 -144.96499633789062,-37.8650016784668 C-119.97799682617188,-37.8650016784668 -99.72200012207031,-17.71500015258789 -99.72200012207031,7.142000198364258z" style="mix-blend-mode: multiply;"/></g></g><g transform="matrix(0.7071067690849304,-0.7071067690849304,-0.7071067690849304,-0.7071067690849304,221.54391479492188,216.44540405273438)" opacity="1" style="display: block;"><g opacity="1" transform="matrix(1,0,0,1,0,0)"><path stroke-linecap="butt" stroke-linejoin="miter" fill-opacity="0" stroke-miterlimit="4" class="secondary" stroke="rgb(47,232,188)" stroke-opacity="1" stroke-width="2" d="M0 0"/></g><g opacity="1" transform="matrix(1,0,0,1,0,0)"><path class="secondary" fill="rgb(47,232,188)" fill-opacity="1" d=" M-68.9989013671875,5.814820766448975 C-68.9989013671875,-31.291305541992188 -103.0087890625,-61.37269973754883 -144.9617919921875,-61.37269973754883 C-186.914794921875,-61.37269973754883 -220.9239044189453,-31.291305541992188 -220.9239044189453,5.814820766448975 C-220.9239044189453,42.92094421386719 -186.914794921875,73.0013427734375 -144.9617919921875,73.0013427734375 C-103.0087890625,73.0013427734375 -68.9989013671875,42.92094421386719 -68.9989013671875,5.814820766448975z M-99.71879577636719,5.814820766448975 C-99.71879577636719,27.915489196777344 -119.97479248046875,45.830074310302734 -144.9617919921875,45.830074310302734 C-169.94879150390625,45.830074310302734 -190.2047882080078,27.915489196777344 -190.2047882080078,5.814820766448975 C-190.2047882080078,-16.28584861755371 -169.94879150390625,-34.20143127441406 -144.9617919921875,-34.20143127441406 C-119.97479248046875,-34.20143127441406 -99.71879577636719,-16.28584861755371 -99.71879577636719,5.814820766448975z"/><path class="secondary" fill="rgb(47,232,188)" fill-opacity="0.5" d=" M-68.9989013671875,5.814820766448975 C-68.9989013671875,-31.291305541992188 -103.0087890625,-61.37269973754883 -144.9617919921875,-61.37269973754883 C-186.914794921875,-61.37269973754883 -220.9239044189453,-31.291305541992188 -220.9239044189453,5.814820766448975 C-220.9239044189453,42.92094421386719 -186.914794921875,73.0013427734375 -144.9617919921875,73.0013427734375 C-103.0087890625,73.0013427734375 -68.9989013671875,42.92094421386719 -68.9989013671875,5.814820766448975z M-99.71879577636719,5.814820766448975 C-99.71879577636719,27.915489196777344 -119.97479248046875,45.830074310302734 -144.9617919921875,45.830074310302734 C-169.94879150390625,45.830074310302734 -190.2047882080078,27.915489196777344 -190.2047882080078,5.814820766448975 C-190.2047882080078,-16.28584861755371 -169.94879150390625,-34.20143127441406 -144.9617919921875,-34.20143127441406 C-119.97479248046875,-34.20143127441406 -99.71879577636719,-16.28584861755371 -99.71879577636719,5.814820766448975z" style="mix-blend-mode: multiply;"/></g></g><g transform="matrix(0.7071067690849304,-0.7071067690849304,-0.7071067690849304,-0.7071067690849304,221.54391479492188,216.44540405273438)" opacity="1" style="display: block;"><g opacity="1" transform="matrix(1,0,0,1,0,0)"><path stroke-linecap="round" stroke-linejoin="round" fill-opacity="0" class="primary" stroke="rgb(21,198,158)" stroke-opacity="1" stroke-width="7" d=" M-99.74677276611328,5.803429126739502 C-99.74677276611328,-16.2972412109375 -120.00277709960938,-34.21282196044922 -144.98977661132812,-34.21282196044922 C-169.97677612304688,-34.21282196044922 -190.23277282714844,-16.2972412109375 -190.23277282714844,5.803429126739502 C-190.23277282714844,27.904098510742188 -169.97677612304688,45.818790435791016 -144.98977661132812,45.818790435791016 C-120.00277709960938,45.818790435791016 -99.74677276611328,27.904098510742188 -99.74677276611328,5.803429126739502z M-99.71879577636719,5.814820766448975 C-99.71879577636719,-16.28584861755371 -119.97479248046875,-34.20143127441406 -144.9617919921875,-34.20143127441406 C-169.94879150390625,-34.20143127441406 -190.2047882080078,-16.28584861755371 -190.2047882080078,5.814820766448975 C-190.2047882080078,27.915489196777344 -169.94879150390625,45.830074310302734 -144.9617919921875,45.830074310302734 C-119.97479248046875,45.830074310302734 -99.71879577636719,27.915489196777344 -99.71879577636719,5.814820766448975z"/></g></g><g transform="matrix(1,0,0,1,215,215)" opacity="1" style="display: none;"><g opacity="1" transform="matrix(1,0,0,1,0,0)"><path stroke-linecap="butt" stroke-linejoin="miter" fill-opacity="0" stroke-miterlimit="4" class="secondary" stroke="rgb(47,232,188)" stroke-opacity="1" stroke-width="2" d="M0 0"/></g><g opacity="1" transform="matrix(1,0,0,1,0,0)"><path class="secondary" fill="rgb(47,232,188)" fill-opacity="1" d=" M-52.25086212158203,34.05510330200195 C-54.160240173339844,33.04539489746094 -92.59986114501953,66.67922973632812 -113.29225158691406,87.2141342163086 C-132.74203491210938,106.43485260009766 -162.11090087890625,142.36460876464844 -161.3414764404297,143.37509155273438 C-161.33717346191406,143.38076782226562 -145.7967529296875,158.48367309570312 -145.80105590820312,158.47799682617188 C-146.57142639160156,157.45677185058594 -116.91930389404297,121.67477416992188 -97.25527954101562,102.45411682128906 C-76.32854461669922,81.93408203125 -37.632293701171875,48.95478820800781 -36.03455352783203,49.835201263427734 C-36.03008270263672,49.837608337402344 -52.24639129638672,34.05751037597656 -52.25086212158203,34.05510330200195z"/><path class="secondary" fill="rgb(47,232,188)" fill-opacity="0.5" d=" M-52.25086212158203,34.05510330200195 C-54.160240173339844,33.04539489746094 -92.59986114501953,66.67922973632812 -113.29225158691406,87.2141342163086 C-132.74203491210938,106.43485260009766 -162.11090087890625,142.36460876464844 -161.3414764404297,143.37509155273438 C-161.33717346191406,143.38076782226562 -145.7967529296875,158.48367309570312 -145.80105590820312,158.47799682617188 C-146.57142639160156,157.45677185058594 -116.91930389404297,121.67477416992188 -97.25527954101562,102.45411682128906 C-76.32854461669922,81.93408203125 -37.632293701171875,48.95478820800781 -36.03455352783203,49.835201263427734 C-36.03008270263672,49.837608337402344 -52.24639129638672,34.05751037597656 -52.25086212158203,34.05510330200195z" style="mix-blend-mode: multiply;"/></g></g><g transform="matrix(1,0,0,1,215,215)" opacity="1" style="display: none;"><g opacity="1" transform="matrix(1,0,0,1,0,0)"><path stroke-linecap="butt" stroke-linejoin="miter" fill-opacity="0" stroke-miterlimit="4" class="secondary" stroke="rgb(47,232,188)" stroke-opacity="1" stroke-width="2" d="M0 0"/></g><g opacity="1" transform="matrix(1,0,0,1,0,0)"><path class="secondary" fill="rgb(47,232,188)" fill-opacity="1" d=" M-49.6126823425293,39.933197021484375 C-71.74080657958984,28.23149299621582 -113.61788940429688,9.77542495727539 -151.6277618408203,43.63048553466797 C-194.97499084472656,82.23698425292969 -171.22708129882812,130.34169006347656 -162.31007385253906,142.05235290527344 C-162.26026916503906,142.1181182861328 -162.17567443847656,142.42701721191406 -162.22549438476562,142.36126708984375 C-171.15345764160156,130.5260467529297 -195.0177459716797,82.51358032226562 -150.88185119628906,43.092376708984375 C-111.10916137695312,7.567139625549316 -68.15341186523438,29.944978713989258 -49.63691711425781,40.14822769165039 C-49.58510971069336,40.176124572753906 -49.560874938964844,39.96109390258789 -49.6126823425293,39.933197021484375z"/><path class="secondary" fill="rgb(47,232,188)" fill-opacity="0.5" d=" M-49.6126823425293,39.933197021484375 C-71.74080657958984,28.23149299621582 -113.61788940429688,9.77542495727539 -151.6277618408203,43.63048553466797 C-194.97499084472656,82.23698425292969 -171.22708129882812,130.34169006347656 -162.31007385253906,142.05235290527344 C-162.26026916503906,142.1181182861328 -162.17567443847656,142.42701721191406 -162.22549438476562,142.36126708984375 C-171.15345764160156,130.5260467529297 -195.0177459716797,82.51358032226562 -150.88185119628906,43.092376708984375 C-111.10916137695312,7.567139625549316 -68.15341186523438,29.944978713989258 -49.63691711425781,40.14822769165039 C-49.58510971069336,40.176124572753906 -49.560874938964844,39.96109390258789 -49.6126823425293,39.933197021484375z" style="mix-blend-mode: multiply;"/></g></g><g transform="matrix(1,0,0,1,215,215)" opacity="1" style="display: block;"><g opacity="1" transform="matrix(1,0,0,1,0,0)"><path stroke-linecap="butt" stroke-linejoin="miter" fill-opacity="0" stroke-miterlimit="4" class="secondary" stroke="rgb(47,232,188)" stroke-opacity="1" stroke-width="2" d="M0 0"/></g><g opacity="1" transform="matrix(1,0,0,1,0,0)"><path class="secondary" fill="rgb(47,232,188)" fill-opacity="1" d=" M-49.92295837402344,39.241973876953125 C-69.67381286621094,28.79758644104004 -111.14637756347656,16.466506958007812 -147.12014770507812,48.755313873291016 C-187.65736389160156,85.08233642578125 -169.86773681640625,132.502685546875 -161.9088897705078,142.9551544189453 C-161.86441040039062,143.0137939453125 -159.50259399414062,145.69435119628906 -159.5470733642578,145.63571166992188 C-167.51577758789062,135.07203674316406 -185.83448791503906,87.11832427978516 -144.57615661621094,50.072391510009766 C-107.0193862915039,16.31143569946289 -64.56460571289062,32.18022537231445 -48.03755187988281,41.28730010986328 C-47.99129867553711,41.312313079833984 -49.876705169677734,39.266754150390625 -49.92295837402344,39.241973876953125z"/><path class="secondary" fill="rgb(47,232,188)" fill-opacity="0.5" d=" M-49.92295837402344,39.241973876953125 C-69.67381286621094,28.79758644104004 -111.14637756347656,16.466506958007812 -147.12014770507812,48.755313873291016 C-187.65736389160156,85.08233642578125 -169.86773681640625,132.502685546875 -161.9088897705078,142.9551544189453 C-161.86441040039062,143.0137939453125 -159.50259399414062,145.69435119628906 -159.5470733642578,145.63571166992188 C-167.51577758789062,135.07203674316406 -185.83448791503906,87.11832427978516 -144.57615661621094,50.072391510009766 C-107.0193862915039,16.31143569946289 -64.56460571289062,32.18022537231445 -48.03755187988281,41.28730010986328 C-47.99129867553711,41.312313079833984 -49.876705169677734,39.266754150390625 -49.92295837402344,39.241973876953125z" style="mix-blend-mode: multiply;"/></g></g><g transform="matrix(1,0,0,1,215,215)" opacity="1" style="display: none;"><g opacity="1" transform="matrix(1,0,0,1,0,0)"><path stroke-linecap="butt" stroke-linejoin="miter" fill-opacity="0" stroke-miterlimit="4" class="secondary" stroke="rgb(47,232,188)" stroke-opacity="1" stroke-width="2" d="M0 0"/></g><g opacity="1" transform="matrix(1,0,0,1,0,0)"><path class="secondary" fill="rgb(47,232,188)" fill-opacity="1" d=" M-49.608642578125,39.94219970703125 C-71.76773071289062,28.224123001098633 -113.65007019042969,9.68829345703125 -151.68646240234375,43.563751220703125 C-195.07028198242188,82.19993591308594 -171.23953247070312,130.33238220214844 -162.31004333496094,142.05943298339844 C-162.26016235351562,142.1252899169922 -162.19923400878906,142.41305541992188 -162.24913024902344,142.34719848632812 C-171.1895751953125,130.4954376220703 -195.1373291015625,82.45361328125 -150.96395874023438,43.00148010253906 C-111.16241455078125,7.453266143798828 -68.20014190673828,29.915868759155273 -49.657745361328125,40.133392333984375 C-49.605865478515625,40.16133117675781 -49.5567626953125,39.97013473510742 -49.608642578125,39.94219970703125z"/><path class="secondary" fill="rgb(47,232,188)" fill-opacity="0.5" d=" M-49.608642578125,39.94219970703125 C-71.76773071289062,28.224123001098633 -113.65007019042969,9.68829345703125 -151.68646240234375,43.563751220703125 C-195.07028198242188,82.19993591308594 -171.23953247070312,130.33238220214844 -162.31004333496094,142.05943298339844 C-162.26016235351562,142.1252899169922 -162.19923400878906,142.41305541992188 -162.24913024902344,142.34719848632812 C-171.1895751953125,130.4954376220703 -195.1373291015625,82.45361328125 -150.96395874023438,43.00148010253906 C-111.16241455078125,7.453266143798828 -68.20014190673828,29.915868759155273 -49.657745361328125,40.133392333984375 C-49.605865478515625,40.16133117675781 -49.5567626953125,39.97013473510742 -49.608642578125,39.94219970703125z" style="mix-blend-mode: multiply;"/></g></g><g clip-path="url(#__lottie_element_41)" transform="matrix(1,0,0,1,0,0)" opacity="1" style="display: block;"><g transform="matrix(0.7071067690849304,-0.7071067690849304,0.7071067690849304,0.7071067690849304,211.443603515625,204.69808959960938)" opacity="1" style="display: none;"><g opacity="1" transform="matrix(1,0,0,1,0,0)"><path class="secondary" fill="rgb(47,232,188)" fill-opacity="1" d=" M-68.97673034667969,-3.688812017440796 C-68.97673034667969,0.49838879704475403 -102.98582458496094,3.891763687133789 -144.93882751464844,3.891763687133789 C-186.89183044433594,3.891763687133789 -220.9017333984375,0.49838879704475403 -220.9017333984375,-3.688812017440796 C-220.9017333984375,-7.876012802124023 -186.89183044433594,-11.270193099975586 -144.93882751464844,-11.270193099975586 C-102.98582458496094,-11.270193099975586 -68.97673034667969,-7.876012802124023 -68.97673034667969,-3.688812017440796z M-99.6958236694336,-3.6887145042419434 C-99.6958236694336,-6.182125568389893 -119.95182800292969,-8.20471477508545 -144.93882751464844,-8.20471477508545 C-169.9258270263672,-8.20471477508545 -190.18182373046875,-6.182222843170166 -190.18182373046875,-3.688812017440796 C-190.18182373046875,-1.1954010725021362 -169.9258270263672,0.8262857794761658 -144.93882751464844,0.8262857794761658 C-119.95182800292969,0.8262857794761658 -99.6958236694336,-1.1953036785125732 -99.6958236694336,-3.6887145042419434z"/></g></g><g transform="matrix(0.7071067690849304,-0.7071067690849304,0.7071067690849304,0.7071067690849304,211.443603515625,204.69808959960938)" opacity="0.5" style="mix-blend-mode: multiply; display: none;"><g opacity="1" transform="matrix(1,0,0,1,0,0)"><path class="secondary" fill="rgb(47,232,188)" fill-opacity="1" d=" M-68.97673034667969,-3.688812017440796 C-68.97673034667969,0.49838879704475403 -102.98582458496094,3.891763687133789 -144.93882751464844,3.891763687133789 C-186.89183044433594,3.891763687133789 -220.9017333984375,0.49838879704475403 -220.9017333984375,-3.688812017440796 C-220.9017333984375,-7.876012802124023 -186.89183044433594,-11.270193099975586 -144.93882751464844,-11.270193099975586 C-102.98582458496094,-11.270193099975586 -68.97673034667969,-7.876012802124023 -68.97673034667969,-3.688812017440796z M-99.6958236694336,-3.6887145042419434 C-99.6958236694336,-6.182125568389893 -119.95182800292969,-8.20471477508545 -144.93882751464844,-8.20471477508545 C-169.9258270263672,-8.20471477508545 -190.18182373046875,-6.182222843170166 -190.18182373046875,-3.688812017440796 C-190.18182373046875,-1.1954010725021362 -169.9258270263672,0.8262857794761658 -144.93882751464844,0.8262857794761658 C-119.95182800292969,0.8262857794761658 -99.6958236694336,-1.1953036785125732 -99.6958236694336,-3.6887145042419434z"/></g></g><g transform="matrix(0.7071067690849304,-0.7071067690849304,0.7071067690849304,0.7071067690849304,211.443603515625,204.69808959960938)" opacity="1" style="display: none;"><g opacity="1" transform="matrix(1,0,0,1,0,0)"><path class="secondary" fill="rgb(47,232,188)" fill-opacity="1" d=" M-69.00199890136719,7.142000198364258 C-69.00199890136719,-34.59199905395508 -103.01200103759766,-68.42500305175781 -144.96499633789062,-68.42500305175781 C-186.91799926757812,-68.42500305175781 -220.927001953125,-34.59199905395508 -220.927001953125,7.142000198364258 C-220.927001953125,48.875999450683594 -186.91799926757812,82.70800018310547 -144.96499633789062,82.70800018310547 C-103.01200103759766,82.70800018310547 -69.00199890136719,48.875999450683594 -69.00199890136719,7.142000198364258z M-99.72200012207031,7.142000198364258 C-99.72200012207031,31.999000549316406 -119.97799682617188,52.14799880981445 -144.96499633789062,52.14799880981445 C-169.95199584960938,52.14799880981445 -190.20799255371094,31.999000549316406 -190.20799255371094,7.142000198364258 C-190.20799255371094,-17.71500015258789 -169.95199584960938,-37.8650016784668 -144.96499633789062,-37.8650016784668 C-119.97799682617188,-37.8650016784668 -99.72200012207031,-17.71500015258789 -99.72200012207031,7.142000198364258z"/></g></g><g transform="matrix(0.7071067690849304,-0.7071067690849304,0.7071067690849304,0.7071067690849304,211.443603515625,204.69808959960938)" opacity="0.5" style="mix-blend-mode: multiply; display: none;"><g opacity="1" transform="matrix(1,0,0,1,0,0)"><path class="secondary" fill="rgb(47,232,188)" fill-opacity="1" d=" M-69.00199890136719,7.142000198364258 C-69.00199890136719,-34.59199905395508 -103.01200103759766,-68.42500305175781 -144.96499633789062,-68.42500305175781 C-186.91799926757812,-68.42500305175781 -220.927001953125,-34.59199905395508 -220.927001953125,7.142000198364258 C-220.927001953125,48.875999450683594 -186.91799926757812,82.70800018310547 -144.96499633789062,82.70800018310547 C-103.01200103759766,82.70800018310547 -69.00199890136719,48.875999450683594 -69.00199890136719,7.142000198364258z M-99.72200012207031,7.142000198364258 C-99.72200012207031,31.999000549316406 -119.97799682617188,52.14799880981445 -144.96499633789062,52.14799880981445 C-169.95199584960938,52.14799880981445 -190.20799255371094,31.999000549316406 -190.20799255371094,7.142000198364258 C-190.20799255371094,-17.71500015258789 -169.95199584960938,-37.8650016784668 -144.96499633789062,-37.8650016784668 C-119.97799682617188,-37.8650016784668 -99.72200012207031,-17.71500015258789 -99.72200012207031,7.142000198364258z"/></g></g><g transform="matrix(0.7071067690849304,-0.7071067690849304,-0.7071067690849304,-0.7071067690849304,221.54391479492188,216.44540405273438)" opacity="1" style="display: block;"><g opacity="1" transform="matrix(1,0,0,1,0,0)"><path class="secondary" fill="rgb(47,232,188)" fill-opacity="1" d=" M-68.98773193359375,8.579777717590332 C-68.98773193359375,-28.526348114013672 -102.99761962890625,-58.60774230957031 -144.95062255859375,-58.60774230957031 C-186.90362548828125,-58.60774230957031 -220.91273498535156,-28.526348114013672 -220.91273498535156,8.579777717590332 C-220.91273498535156,45.6859016418457 -186.90362548828125,75.76629638671875 -144.95062255859375,75.76629638671875 C-102.99761962890625,75.76629638671875 -68.98773193359375,45.6859016418457 -68.98773193359375,8.579777717590332z M-99.7076187133789,8.579777717590332 C-99.7076187133789,30.68044662475586 -119.963623046875,48.59503173828125 -144.95062255859375,48.59503173828125 C-169.9376220703125,48.59503173828125 -190.1937255859375,30.68044662475586 -190.1937255859375,8.579777717590332 C-190.1937255859375,-13.520892143249512 -169.9376220703125,-31.436473846435547 -144.95062255859375,-31.436473846435547 C-119.963623046875,-31.436473846435547 -99.7076187133789,-13.520892143249512 -99.7076187133789,8.579777717590332z"/></g></g><g transform="matrix(0.7071067690849304,-0.7071067690849304,-0.7071067690849304,-0.7071067690849304,221.54391479492188,216.44540405273438)" opacity="0.5" style="mix-blend-mode: multiply; display: block;"><g opacity="1" transform="matrix(1,0,0,1,0,0)"><path class="secondary" fill="rgb(47,232,188)" fill-opacity="1" d=" M-68.98773193359375,8.579777717590332 C-68.98773193359375,-28.526348114013672 -102.99761962890625,-58.60774230957031 -144.95062255859375,-58.60774230957031 C-186.90362548828125,-58.60774230957031 -220.91273498535156,-28.526348114013672 -220.91273498535156,8.579777717590332 C-220.91273498535156,45.6859016418457 -186.90362548828125,75.76629638671875 -144.95062255859375,75.76629638671875 C-102.99761962890625,75.76629638671875 -68.98773193359375,45.6859016418457 -68.98773193359375,8.579777717590332z M-99.7076187133789,8.579777717590332 C-99.7076187133789,30.68044662475586 -119.963623046875,48.59503173828125 -144.95062255859375,48.59503173828125 C-169.9376220703125,48.59503173828125 -190.1937255859375,30.68044662475586 -190.1937255859375,8.579777717590332 C-190.1937255859375,-13.520892143249512 -169.9376220703125,-31.436473846435547 -144.95062255859375,-31.436473846435547 C-119.963623046875,-31.436473846435547 -99.7076187133789,-13.520892143249512 -99.7076187133789,8.579777717590332z"/></g></g></g><g mask="url(#__lottie_element_48_1)" style="display: block;"><g clip-path="url(#__lottie_element_45)" transform="matrix(1,0,0,1,12,4)" opacity="1"><g transform="matrix(0.7071067690849304,-0.7071067690849304,0.7071067690849304,0.7071067690849304,211.443603515625,204.69808959960938)" opacity="1" style="display: none;"><g opacity="1" transform="matrix(1,0,0,1,0,0)"><path class="secondary" fill="rgb(47,232,188)" fill-opacity="1" d=" M-68.97673034667969,-3.688812017440796 C-68.97673034667969,0.49838879704475403 -102.98582458496094,3.891763687133789 -144.93882751464844,3.891763687133789 C-186.89183044433594,3.891763687133789 -220.9017333984375,0.49838879704475403 -220.9017333984375,-3.688812017440796 C-220.9017333984375,-7.876012802124023 -186.89183044433594,-11.270193099975586 -144.93882751464844,-11.270193099975586 C-102.98582458496094,-11.270193099975586 -68.97673034667969,-7.876012802124023 -68.97673034667969,-3.688812017440796z M-99.6958236694336,-3.6887145042419434 C-99.6958236694336,-6.182125568389893 -119.95182800292969,-8.20471477508545 -144.93882751464844,-8.20471477508545 C-169.9258270263672,-8.20471477508545 -190.18182373046875,-6.182222843170166 -190.18182373046875,-3.688812017440796 C-190.18182373046875,-1.1954010725021362 -169.9258270263672,0.8262857794761658 -144.93882751464844,0.8262857794761658 C-119.95182800292969,0.8262857794761658 -99.6958236694336,-1.1953036785125732 -99.6958236694336,-3.6887145042419434z"/></g></g><g transform="matrix(0.7071067690849304,-0.7071067690849304,0.7071067690849304,0.7071067690849304,211.443603515625,204.69808959960938)" opacity="1" style="display: none;"><g opacity="1" transform="matrix(1,0,0,1,0,0)"><path class="secondary" fill="rgb(47,232,188)" fill-opacity="1" d=" M-69.00199890136719,7.142000198364258 C-69.00199890136719,-34.59199905395508 -103.01200103759766,-68.42500305175781 -144.96499633789062,-68.42500305175781 C-186.91799926757812,-68.42500305175781 -220.927001953125,-34.59199905395508 -220.927001953125,7.142000198364258 C-220.927001953125,48.875999450683594 -186.91799926757812,82.70800018310547 -144.96499633789062,82.70800018310547 C-103.01200103759766,82.70800018310547 -69.00199890136719,48.875999450683594 -69.00199890136719,7.142000198364258z M-99.72200012207031,7.142000198364258 C-99.72200012207031,31.999000549316406 -119.97799682617188,52.14799880981445 -144.96499633789062,52.14799880981445 C-169.95199584960938,52.14799880981445 -190.20799255371094,31.999000549316406 -190.20799255371094,7.142000198364258 C-190.20799255371094,-17.71500015258789 -169.95199584960938,-37.8650016784668 -144.96499633789062,-37.8650016784668 C-119.97799682617188,-37.8650016784668 -99.72200012207031,-17.71500015258789 -99.72200012207031,7.142000198364258z"/></g></g><g transform="matrix(0.7071067690849304,-0.7071067690849304,-0.7071067690849304,-0.7071067690849304,221.54391479492188,216.44540405273438)" opacity="1" style="display: block;"><g opacity="1" transform="matrix(1,0,0,1,0,0)"><path class="secondary" fill="rgb(47,232,188)" fill-opacity="1" d=" M-68.98773193359375,8.579777717590332 C-68.98773193359375,-28.526348114013672 -102.99761962890625,-58.60774230957031 -144.95062255859375,-58.60774230957031 C-186.90362548828125,-58.60774230957031 -220.91273498535156,-28.526348114013672 -220.91273498535156,8.579777717590332 C-220.91273498535156,45.6859016418457 -186.90362548828125,75.76629638671875 -144.95062255859375,75.76629638671875 C-102.99761962890625,75.76629638671875 -68.98773193359375,45.6859016418457 -68.98773193359375,8.579777717590332z M-99.7076187133789,8.579777717590332 C-99.7076187133789,30.68044662475586 -119.963623046875,48.59503173828125 -144.95062255859375,48.59503173828125 C-169.9376220703125,48.59503173828125 -190.1937255859375,30.68044662475586 -190.1937255859375,8.579777717590332 C-190.1937255859375,-13.520892143249512 -169.9376220703125,-31.436473846435547 -144.95062255859375,-31.436473846435547 C-119.963623046875,-31.436473846435547 -99.7076187133789,-13.520892143249512 -99.7076187133789,8.579777717590332z"/></g></g></g></g><g clip-path="url(#__lottie_element_53)" transform="matrix(1,0,0,1,0,0)" opacity="1" style="display: block;"><g transform="matrix(0.7071067690849304,-0.7071067690849304,0.7071067690849304,0.7071067690849304,211.443603515625,204.69808959960938)" opacity="1" style="display: none;"><path class="secondary" fill="rgb(47,232,188)" fill-opacity="1" d=" M-76.52613830566406,-7.6509504318237305 C-76.52613830566406,-7.6509504318237305 -75.0639877319336,-1.327736258506775 -75.15110778808594,7.1987409591674805 C-75.235107421875,15.556129455566406 -76.48552703857422,22.46095085144043 -76.48552703857422,22.46095085144043 C-76.48552703857422,22.46095085144043 -47.867286682128906,22.358840942382812 -47.867286682128906,22.358840942382812 C-40.94428634643555,22.358840942382812 -35.3312873840332,16.745742797851562 -35.3312873840332,9.82274341583252 C-35.3312873840332,9.82274341583252 -35.3312873840332,9.82274341583252 -35.3312873840332,9.82274341583252 C-35.3312873840332,9.82274341583252 -35.37099838256836,5.101446151733398 -35.37099838256836,5.101446151733398 C-35.37099838256836,5.101446151733398 -35.37099838256836,5.101446151733398 -35.37099838256836,5.101446151733398 C-35.37099838256836,-1.8215537071228027 -40.98400115966797,-7.434553623199463 -47.90700149536133,-7.434553623199463 C-47.90700149536133,-7.434553623199463 -76.52613830566406,-7.6509504318237305 -76.52613830566406,-7.6509504318237305z"/><g opacity="1" transform="matrix(1,0,0,1,0,0)"/></g><g transform="matrix(0.7071067690849304,-0.7071067690849304,0.7071067690849304,0.7071067690849304,211.443603515625,204.69808959960938)" opacity="1" style="display: none;"><path class="secondary" fill="rgb(47,232,188)" fill-opacity="1" d=" M-83.70600128173828,-30.30699920654297 C-83.70600128173828,-30.30699920654297 -74.43399810791016,-19.19300079345703 -74.51300048828125,7.677999973297119 C-74.59700012207031,36.138999938964844 -83.70600128173828,44.20000076293945 -83.70600128173828,44.20000076293945 C-83.70600128173828,44.20000076293945 -47.90700149536133,44.736000061035156 -47.90700149536133,44.736000061035156 C-40.98400115966797,44.736000061035156 -35.37099838256836,39.12200164794922 -35.37099838256836,32.19900131225586 C-35.37099838256836,32.19900131225586 -35.37099838256836,32.19900131225586 -35.37099838256836,32.19900131225586 C-35.37099838256836,32.19900131225586 -35.37099838256836,-17.236000061035156 -35.37099838256836,-17.236000061035156 C-35.37099838256836,-17.236000061035156 -35.37099838256836,-17.236000061035156 -35.37099838256836,-17.236000061035156 C-35.37099838256836,-24.159000396728516 -40.98400115966797,-29.77199935913086 -47.90700149536133,-29.77199935913086 C-47.90700149536133,-29.77199935913086 -83.70600128173828,-30.30699920654297 -83.70600128173828,-30.30699920654297z"/><g opacity="1" transform="matrix(1,0,0,1,0,0)"/></g><g transform="matrix(0.7071067690849304,-0.7071067690849304,-0.7071067690849304,-0.7071067690849304,221.54391479492188,216.44540405273438)" opacity="1" style="display: block;"><path class="secondary" fill="rgb(47,232,188)" fill-opacity="1" d=" M-82.82618713378906,-27.53076171875 C-82.82618713378906,-27.53076171875 -74.51119995117188,-17.003816604614258 -74.59119415283203,7.619272232055664 C-74.6751937866211,33.61680603027344 -82.82121276855469,41.536128997802734 -82.82121276855469,41.536128997802734 C-82.82121276855469,41.536128997802734 -47.90213394165039,41.99393844604492 -47.90213394165039,41.99393844604492 C-40.97913360595703,41.99393844604492 -35.36613464355469,36.38004684448242 -35.36613464355469,29.457046508789062 C-35.36613464355469,29.457046508789062 -35.36613464355469,29.457046508789062 -35.36613464355469,29.457046508789062 C-35.36613464355469,29.457046508789062 -35.37099838256836,-14.49880313873291 -35.37099838256836,-14.49880313873291 C-35.37099838256836,-14.49880313873291 -35.37099838256836,-14.49880313873291 -35.37099838256836,-14.49880313873291 C-35.37099838256836,-21.421802520751953 -40.98400115966797,-27.03480339050293 -47.90700149536133,-27.03480339050293 C-47.90700149536133,-27.03480339050293 -82.82618713378906,-27.53076171875 -82.82618713378906,-27.53076171875z"/><g opacity="1" transform="matrix(1,0,0,1,0,0)"/></g></g><g transform="matrix(1,0,0,1,215,215)" opacity="1" style="display: none;"><g opacity="1" transform="matrix(1,0,0,1,0,0)"><path stroke-linecap="butt" stroke-linejoin="miter" fill-opacity="0" stroke-miterlimit="4" class="secondary" stroke="rgb(47,232,188)" stroke-opacity="1" stroke-width="2" d="M0 0"/></g><g opacity="1" transform="matrix(1,0,0,1,0,0)"><path class="secondary" fill="rgb(47,232,188)" fill-opacity="1" d=" M-48.01121520996094,40.747291564941406 C-29.551790237426758,57.7150764465332 -6.492728233337402,115.45753479003906 -50.66963195800781,154.80032348632812 C-101.05913543701172,199.67413330078125 -153.39263916015625,155.97882080078125 -161.25071716308594,143.5056915283203 C-161.29461669921875,143.43484497070312 -161.24754333496094,143.2433624267578 -161.20361328125,143.31417846679688 C-153.30169677734375,155.94960021972656 -101.13141632080078,199.97532653808594 -49.82453918457031,154.15371704101562 C-3.5968573093414307,112.86749267578125 -32.48530960083008,55.28548049926758 -47.826515197753906,40.68827438354492 C-47.869422912597656,40.64735412597656 -48.05511474609375,40.70737075805664 -48.01121520996094,40.747291564941406z"/></g></g><g transform="matrix(1,0,0,1,215,215)" opacity="1" style="display: block;"><g opacity="1" transform="matrix(1,0,0,1,0,0)"><path stroke-linecap="butt" stroke-linejoin="miter" fill-opacity="0" stroke-miterlimit="4" class="secondary" stroke="rgb(47,232,188)" stroke-opacity="1" stroke-width="2" d="M0 0"/></g><g opacity="1" transform="matrix(1,0,0,1,0,0)"><path class="secondary" fill="rgb(47,232,188)" fill-opacity="1" d=" M-48.50239181518555,39.94022750854492 C-32.0687141418457,55.04149627685547 -15.570201873779297,111.77159881591797 -56.9899787902832,148.91171264648438 C-103.73538208007812,190.76858520507812 -154.25466918945312,154.6040496826172 -161.25,143.5 C-161.28936767578125,143.43710327148438 -159.39024353027344,145.05764770507812 -159.3512725830078,145.12054443359375 C-152.35592651367188,156.33567810058594 -108.42900085449219,197.20327758789062 -54.332000732421875,150.1583251953125 C-9.01718521118164,110.63887786865234 -32.75138854980469,54.747222900390625 -46.409149169921875,41.75566864013672 C-46.44712829589844,41.71929931640625 -48.5413703918457,39.90486145019531 -48.50239181518555,39.94022750854492z"/></g></g><g transform="matrix(0.7071067690849304,-0.7071067690849304,0.7071067690849304,0.7071067690849304,211.443603515625,204.69808959960938)" opacity="1" style="display: none;"><g opacity="1" transform="matrix(1,0,0,1,0,0)"><path stroke-linecap="round" stroke-linejoin="round" fill-opacity="0" class="primary" stroke="rgb(21,198,158)" stroke-opacity="1" stroke-width="7" d=" M-37.39814758300781,21.462997436523438 C-37.39814758300781,21.462997436523438 112.9165267944336,20.99121856689453 112.9165267944336,20.99121856689453 C112.9165267944336,20.99121856689453 112.9165267944336,23.823108673095703 112.9165267944336,23.823108673095703 C112.9165267944336,23.823108673095703 144.33343505859375,23.823108673095703 144.33343505859375,23.823108673095703 C144.33343505859375,23.823108673095703 144.33343505859375,22.06338119506836 144.33343505859375,22.06338119506836 C144.33343505859375,22.06338119506836 175.75042724609375,22.06338119506836 175.75042724609375,22.06338119506836 C175.75042724609375,22.06338119506836 175.75042724609375,23.823108673095703 175.75042724609375,23.823108673095703 C175.75042724609375,23.823108673095703 207.16653442382812,23.823108673095703 207.16653442382812,23.823108673095703 C207.16653442382812,23.823108673095703 207.16653442382812,20.99121856689453 207.16653442382812,20.99121856689453 C207.16653442382812,20.99121856689453 220.13743591308594,20.984201431274414 220.13743591308594,20.984201431274414 C226.27243041992188,20.984201431274414 231.13160705566406,16.913761138916016 231.13160705566406,10.778761863708496 C231.13160705566406,10.778761863708496 231.2444305419922,5.69163703918457 231.2444305419922,5.69163703918457 C231.2444305419922,-0.44336292147636414 226.2715301513672,-5.416362762451172 220.13743591308594,-5.416362762451172 C220.13743591308594,-5.416362762451172 -37.39814758300781,-4.937568664550781 -37.39814758300781,-4.937568664550781"/></g></g><g transform="matrix(0.7071067690849304,-0.7071067690849304,0.7071067690849304,0.7071067690849304,211.443603515625,204.69808959960938)" opacity="1" style="display: none;"><g opacity="1" transform="matrix(1,0,0,1,0,0)"><path stroke-linecap="round" stroke-linejoin="round" fill-opacity="0" class="primary" stroke="rgb(21,198,158)" stroke-opacity="1" stroke-width="7" d=" M-68.90599822998047,-3.6965551376342773 C-68.90599822998047,-3.6965551376342773 -68.90599822998047,18.754613876342773 -68.90599822998047,18.754613876342773 M-220.875,-3.681354522705078 C-220.875,-3.681354522705078 -220.875,18.75763511657715 -220.875,18.75763511657715 M-68.88556671142578,18.87517738342285 C-68.88556671142578,23.0623779296875 -102.89466857910156,26.455753326416016 -144.84767150878906,26.455753326416016 C-186.80067443847656,26.455753326416016 -220.81057739257812,23.0623779296875 -220.81057739257812,18.87517738342285 C-220.81057739257812,14.687975883483887 -186.80067443847656,11.293795585632324 -144.84767150878906,11.293795585632324 C-102.89466857910156,11.293795585632324 -68.88556671142578,14.687975883483887 -68.88556671142578,18.87517738342285z M-99.60466766357422,18.875274658203125 C-99.60466766357422,21.368684768676758 -119.86066436767578,23.390274047851562 -144.84767150878906,23.390274047851562 C-169.8346710205078,23.390274047851562 -190.09156799316406,21.368587493896484 -190.09156799316406,18.87517738342285 C-190.09156799316406,16.381765365600586 -169.8346710205078,14.359273910522461 -144.84767150878906,14.359273910522461 C-119.86066436767578,14.359273910522461 -99.60466766357422,16.38186264038086 -99.60466766357422,18.875274658203125z M-76.0389175415039,22.440290451049805 C-76.0389175415039,22.440290451049805 -48.01801300048828,22.623291015625 -48.01801300048828,22.623291015625 C-41.09501647949219,22.623291015625 -35.48201370239258,17.00929069519043 -35.48201370239258,10.086291313171387 C-35.48201370239258,10.086291313171387 -35.48201370239258,10.086291313171387 -35.48201370239258,10.086291313171387 C-35.48201370239258,10.086291313171387 -35.6661376953125,5.290081024169922 -35.6661376953125,5.290081024169922 C-35.6661376953125,5.290081024169922 -35.6661376953125,5.290081024169922 -35.6661376953125,5.290081024169922 C-35.6661376953125,-1.6329188346862793 -41.279136657714844,-7.2459187507629395 -48.2021369934082,-7.2459187507629395 C-48.2021369934082,-7.2459187507629395 -76.22213745117188,-7.427918910980225 -76.22213745117188,-7.427918910980225"/></g><g opacity="1" transform="matrix(1,0,0,1,0,0)"><path stroke-linecap="round" stroke-linejoin="round" fill-opacity="0" class="primary" stroke="rgb(21,198,158)" stroke-opacity="1" stroke-width="7" d=" M-68.97673034667969,-3.688812017440796 C-68.97673034667969,-7.876012802124023 -102.98582458496094,-11.270193099975586 -144.93882751464844,-11.270193099975586 C-186.89100646972656,-11.270000457763672 -220.9010009765625,-7.875999927520752 -220.90199279785156,-3.688999891281128"/></g></g><g transform="matrix(0.7071067690849304,-0.7071067690849304,0.7071067690849304,0.7071067690849304,211.443603515625,204.69808959960938)" opacity="1" style="display: none;"><g opacity="1" transform="matrix(1,0,0,1,0,0)"><path stroke-linecap="round" stroke-linejoin="round" fill-opacity="0" class="primary" stroke="rgb(21,198,158)" stroke-opacity="1" stroke-width="7" d=" M-35.37099838256836,25.871999740600586 C-35.37099838256836,25.871999740600586 112.8010025024414,25.569000244140625 112.8010025024414,25.569000244140625 C112.8010025024414,25.569000244140625 112.8010025024414,54.604000091552734 112.8010025024414,54.604000091552734 C112.8010025024414,54.604000091552734 144.2169952392578,54.604000091552734 144.2169952392578,54.604000091552734 C144.2169952392578,54.604000091552734 144.2169952392578,36.5629997253418 144.2169952392578,36.5629997253418 C144.2169952392578,36.5629997253418 175.63400268554688,36.5629997253418 175.63400268554688,36.5629997253418 C175.63400268554688,36.5629997253418 175.63400268554688,54.604000091552734 175.63400268554688,54.604000091552734 C175.63400268554688,54.604000091552734 207.05099487304688,54.604000091552734 207.05099487304688,54.604000091552734 C207.05099487304688,54.604000091552734 207.05099487304688,25.569000244140625 207.05099487304688,25.569000244140625 C207.05099487304688,25.569000244140625 220.02099609375,25.496999740600586 220.02099609375,25.496999740600586 C226.156005859375,25.496999740600586 231.1280059814453,20.52400016784668 231.1280059814453,14.388999938964844 C231.1280059814453,14.388999938964844 231.1280059814453,-0.17499999701976776 231.1280059814453,-0.17499999701976776 C231.1280059814453,-6.309999942779541 226.156005859375,-11.282999992370605 220.02099609375,-11.282999992370605 C220.02099609375,-11.282999992370605 -35.37099838256836,-10.907999992370605 -35.37099838256836,-10.907999992370605"/></g></g><g transform="matrix(0.7071067690849304,-0.7071067690849304,0.7071067690849304,0.7071067690849304,211.443603515625,204.69808959960938)" opacity="1" style="display: none;"><g opacity="1" transform="matrix(1,0,0,1,0,0)"><path stroke-linecap="round" stroke-linejoin="round" fill-opacity="0" class="primary" stroke="rgb(21,198,158)" stroke-opacity="1" stroke-width="7" d=" M-68.90599822998047,7.218999862670898 C-68.90599822998047,7.218999862670898 -68.90599822998047,7.218999862670898 -68.90599822998047,7.218999862670898 M-220.875,7.375 C-220.875,7.375 -220.875,7.25 -220.875,7.25 M-69.00199890136719,7.142000198364258 C-69.00199890136719,-34.59199905395508 -103.01200103759766,-68.42500305175781 -144.96499633789062,-68.42500305175781 C-186.91799926757812,-68.42500305175781 -220.927001953125,-34.59199905395508 -220.927001953125,7.142000198364258 C-220.927001953125,48.875999450683594 -186.91799926757812,82.70800018310547 -144.96499633789062,82.70800018310547 C-103.01200103759766,82.70800018310547 -69.00199890136719,48.875999450683594 -69.00199890136719,7.142000198364258z M-99.72200012207031,7.142000198364258 C-99.72200012207031,-17.71500015258789 -119.97799682617188,-37.8650016784668 -144.96499633789062,-37.8650016784668 C-169.95199584960938,-37.8650016784668 -190.20799255371094,-17.71500015258789 -190.20799255371094,7.142000198364258 C-190.20799255371094,31.999000549316406 -169.95199584960938,52.14799880981445 -144.96499633789062,52.14799880981445 C-119.97799682617188,52.14799880981445 -99.72200012207031,31.999000549316406 -99.72200012207031,7.142000198364258z M-69.00199890136719,7.142000198364258 C-69.00199890136719,-34.59199905395508 -103.01200103759766,-68.42500305175781 -144.96499633789062,-68.42500305175781 C-186.91799926757812,-68.42500305175781 -220.927001953125,-34.59199905395508 -220.927001953125,7.142000198364258 C-220.927001953125,48.875999450683594 -186.91799926757812,82.70800018310547 -144.96499633789062,82.70800018310547 C-103.01200103759766,82.70800018310547 -69.00199890136719,48.875999450683594 -69.00199890136719,7.142000198364258z M-99.72200012207031,7.142000198364258 C-99.72200012207031,-17.71500015258789 -119.97799682617188,-37.8650016784668 -144.96499633789062,-37.8650016784668 C-169.95199584960938,-37.8650016784668 -190.20799255371094,-17.71500015258789 -190.20799255371094,7.142000198364258 C-190.20799255371094,31.999000549316406 -169.95199584960938,52.14799880981445 -144.96499633789062,52.14799880981445 C-119.97799682617188,52.14799880981445 -99.72200012207031,31.999000549316406 -99.72200012207031,7.142000198364258z M-75.927001953125,44.553001403808594 C-75.927001953125,44.553001403808594 -47.90700149536133,44.736000061035156 -47.90700149536133,44.736000061035156 C-40.98400115966797,44.736000061035156 -35.37099838256836,39.12200164794922 -35.37099838256836,32.19900131225586 C-35.37099838256836,32.19900131225586 -35.37099838256836,32.19900131225586 -35.37099838256836,32.19900131225586 C-35.37099838256836,32.19900131225586 -35.37099838256836,-17.236000061035156 -35.37099838256836,-17.236000061035156 C-35.37099838256836,-17.236000061035156 -35.37099838256836,-17.236000061035156 -35.37099838256836,-17.236000061035156 C-35.37099838256836,-24.159000396728516 -40.98400115966797,-29.77199935913086 -47.90700149536133,-29.77199935913086 C-47.90700149536133,-29.77199935913086 -75.927001953125,-29.95400047302246 -75.927001953125,-29.95400047302246"/></g></g><g transform="matrix(0.7071067690849304,-0.7071067690849304,-0.7071067690849304,-0.7071067690849304,221.54391479492188,216.44540405273438)" opacity="1" style="display: block;"><g opacity="1" transform="matrix(1,0,0,1,0,0)"><path stroke-linecap="round" stroke-linejoin="round" fill-opacity="0" class="primary" stroke="rgb(21,198,158)" stroke-opacity="1" stroke-width="7" d=" M-35.61940383911133,25.331727981567383 C-35.61940383911133,25.331727981567383 112.81515502929688,25.008045196533203 112.81515502929688,25.008045196533203 C112.81515502929688,25.008045196533203 112.81515502929688,50.832157135009766 112.81515502929688,50.832157135009766 C112.81515502929688,50.832157135009766 144.23126220703125,50.832157135009766 144.23126220703125,50.832157135009766 C144.23126220703125,50.832157135009766 144.23126220703125,34.78623962402344 144.23126220703125,34.78623962402344 C144.23126220703125,34.78623962402344 175.6482696533203,34.78623962402344 175.6482696533203,34.78623962402344 C175.6482696533203,34.78623962402344 175.6482696533203,50.832157135009766 175.6482696533203,50.832157135009766 C175.6482696533203,50.832157135009766 207.06515502929688,50.832157135009766 207.06515502929688,50.832157135009766 C207.06515502929688,50.832157135009766 207.06515502929688,25.008045196533203 207.06515502929688,25.008045196533203 C207.06515502929688,25.008045196533203 220.03526306152344,24.944007873535156 220.03526306152344,24.944007873535156 C226.17027282714844,24.944007873535156 231.12844848632812,20.081605911254883 231.12844848632812,13.946606636047363 C231.12844848632812,13.946606636047363 231.14227294921875,0.5438888669013977 231.14227294921875,0.5438888669013977 C231.14227294921875,-5.591111183166504 226.17015075683594,-10.56411075592041 220.03526306152344,-10.56411075592041 C220.03526306152344,-10.56411075592041 -35.61940383911133,-10.176392555236816 -35.61940383911133,-10.176392555236816"/></g></g><g transform="matrix(0.7071067690849304,-0.7071067690849304,-0.7071067690849304,-0.7071067690849304,221.54391479492188,216.44540405273438)" opacity="1" style="display: block;"><g opacity="1" transform="matrix(1,0,0,1,0,0)"><path stroke-linecap="round" stroke-linejoin="round" fill-opacity="0" class="primary" stroke="rgb(21,198,158)" stroke-opacity="1" stroke-width="7" d=" M-68.90599822998047,5.881424427032471 C-68.90599822998047,5.881424427032471 -68.90599822998047,8.632556915283203 -68.90599822998047,8.632556915283203 M-220.875,6.020171165466309 C-220.875,6.020171165466309 -220.875,8.660128593444824 -220.875,8.660128593444824 M-99.74677276611328,5.803429126739502 C-99.74677276611328,-16.2972412109375 -120.00277709960938,-34.21282196044922 -144.98977661132812,-34.21282196044922 C-169.97677612304688,-34.21282196044922 -190.23277282714844,-16.2972412109375 -190.23277282714844,5.803429126739502 C-190.23277282714844,27.904098510742188 -169.97677612304688,45.818790435791016 -144.98977661132812,45.818790435791016 C-120.00277709960938,45.818790435791016 -99.74677276611328,27.904098510742188 -99.74677276611328,5.803429126739502z M-75.94071197509766,41.84334182739258 C-75.94071197509766,41.84334182739258 -47.92060470581055,42.02634048461914 -47.92060470581055,42.02634048461914 C-40.99760437011719,42.02634048461914 -35.384605407714844,36.4123420715332 -35.384605407714844,29.489341735839844 C-35.384605407714844,29.489341735839844 -35.384605407714844,29.489341735839844 -35.384605407714844,29.489341735839844 C-35.384605407714844,29.489341735839844 -35.40716552734375,-14.475687980651855 -35.40716552734375,-14.475687980651855 C-35.40716552734375,-14.475687980651855 -35.40716552734375,-14.475687980651855 -35.40716552734375,-14.475687980651855 C-35.40716552734375,-21.3986873626709 -41.020164489746094,-27.011688232421875 -47.94316482543945,-27.011688232421875 C-47.94316482543945,-27.011688232421875 -75.96316528320312,-27.193687438964844 -75.96316528320312,-27.193687438964844"/></g><g opacity="1" transform="matrix(1,0,0,1,0,0)"><path stroke-linecap="round" stroke-linejoin="round" fill-opacity="0" class="primary" stroke="rgb(21,198,158)" stroke-opacity="1" stroke-width="7" d=" M-68.9989013671875,5.814820766448975 C-68.9989013671875,-31.291305541992188 -103.0087890625,-61.37269973754883 -144.9617919921875,-61.37269973754883 C-186.914794921875,-61.37269973754883 -220.9239044189453,-31.291305541992188 -220.9239044189453,5.814820766448975 C-220.9239044189453,42.92094421386719 -186.914794921875,73.0013427734375 -144.9617919921875,73.0013427734375 C-103.0087890625,73.0013427734375 -68.9989013671875,42.92094421386719 -68.9989013671875,5.814820766448975z"/></g><g opacity="1" transform="matrix(1,0,0,1,0,0)"><path stroke-linecap="round" stroke-linejoin="round" fill-opacity="0" class="primary" stroke="rgb(21,198,158)" stroke-opacity="1" stroke-width="7" d=" M-68.98773193359375,8.579777717590332 C-68.98773193359375,45.6859016418457 -102.99761962890625,75.76629638671875 -144.95062255859375,75.76629638671875 C-186.90362548828125,75.76629638671875 -220.91273498535156,45.6859016418457 -220.91273498535156,8.579777717590332 C-220.91299438476562,8.579999923706055 -220.91299438476562,8.579999923706055 -220.91299438476562,8.579999923706055"/></g></g></g></g></svg>